Coordinates
version=1
nRows=15
nColumns=42
inDegrees=yes

Units are S.I. units (second, meters, Newtons, ...)
If the header above contains a line with 'inDegrees', this indicates whether rotational values are in degrees (yes) or radians (no).

endheader
time	pelvis_tilt	pelvis_list	pelvis_rotation	pelvis_tx	pelvis_ty	pelvis_tz	hip_flexion_r	hip_adduction_r	hip_rotation_r	knee_angle_r	knee_adduction_r	knee_angle_r_beta	ankle_angle_r	subtalar_angle_r	mtp_angle_r	hip_flexion_l	hip_adduction_l	hip_rotation_l	knee_angle_l	knee_adduction_l	knee_angle_l_beta	ankle_angle_l	subtalar_angle_l	mtp_angle_l	lumbar_extension	lumbar_bending	lumbar_rotation	arm_flex_r	arm_add_r	arm_rot_r	elbow_flex_r	pro_sup_r	wrist_flex_r	wrist_dev_r	arm_flex_l	arm_add_l	arm_rot_l	elbow_flex_l	pro_sup_l	wrist_flex_l	wrist_dev_l
      0.00000000	     13.02514098	     -1.04718891	      6.56320202	     -2.59629833	      0.87895635	      0.17298387	    -27.48915811	      5.89532003	    -20.69893605	      1.58704303	      6.05331956	      0.02769913	     20.20957481	     36.39653203	     -9.64244821	     12.63065782	     -0.59289242	    -12.91881952	     26.51395914	     -7.53270988	      0.46275588	     19.09634660	     17.59308621	     -9.64244821	    -37.34392582	      4.68504792	      5.68522831	      7.23279918	    -19.99838653	      6.15183177	     47.84900090	     90.00000001	      0.00000000	      0.00000000	      5.27163664	    -13.97899027	      6.94309011	     43.92718486	     90.00000001	      0.00000000	      0.00000000
      0.01000000	     12.78544805	     -1.44355637	      6.74413825	     -2.58490460	      0.87639763	      0.17216015	    -28.16182069	      6.45973164	    -21.23897401	      1.41145282	      6.12187131	      0.02463450	     20.43308588	     36.52582849	     -9.56653398	     13.70022975	     -0.73130949	    -12.44513396	     24.18480150	     -6.76285978	      0.42210442	     18.30437081	     19.35788020	     -9.56653398	    -37.00240123	      5.10955527	      5.87758531	      7.61384477	    -20.11527084	      5.06950399	     48.19826636	     90.00000001	      0.00000000	      0.00000000	      4.62145186	    -13.57505529	      5.92746450	     43.25627716	     90.00000001	      0.00000000	      0.00000000
      0.02000000	     12.47258866	     -1.97797032	      6.94634080	     -2.57366419	      0.87371367	      0.17142236	    -28.60437915	      7.22505507	    -21.63986708	      1.38877713	      5.96313651	      0.02423873	     20.62781083	     36.72969535	     -9.53950673	     14.85071281	     -1.02607293	    -11.65907878	     22.07712248	     -5.87364136	      0.38531848	     17.43344561	     20.48624046	     -9.53950673	    -36.58299487	      5.65937617	      6.08159920	      8.02060419	    -20.38628466	      4.57099363	     48.52582659	     90.00000001	      0.00000000	      0.00000000	      3.90342410	    -13.37800315	      5.59735324	     42.85918465	     90.00000001	      0.00000000	      0.00000000
      0.03000000	     12.18474045	     -2.24827219	      7.07238847	     -2.56213597	      0.87119238	      0.17049281	    -29.08358506	      7.53565756	    -22.38785003	      1.58435999	      6.07914276	      0.02765230	     20.82416589	     37.10805074	     -9.47096241	     15.71682399	     -0.94529060	    -11.04250960	     19.78995762	     -5.20545229	      0.34539992	     16.47568778	     21.56531608	     -9.47096241	    -36.19708578	      5.92149789	      6.15138575	      8.35862288	    -20.37622202	      3.46216368	     48.82229518	     90.00000001	      0.00000000	      0.00000000	      3.28442840	    -13.04869731	      4.66454273	     42.21412856	     90.00000001	      0.00000000	      0.00000000
      0.04000000	     11.80667505	     -2.86033029	      7.18683214	     -2.55077071	      0.86851456	      0.16978497	    -29.29225229	      8.30759070	    -22.53510222	      1.83823366	      5.78339458	      0.03208323	     20.98398306	     37.15117163	     -9.44621280	     16.83211412	     -1.33808938	    -10.37507073	     18.05055218	     -4.44160153	      0.31504157	     15.95209232	     22.45817820	     -9.44621280	    -35.70878374	      6.49471719	      6.38969598	      8.68699520	    -20.63156445	      2.98605087	     49.10221575	     90.00000001	      0.00000000	      0.00000000	      2.61171218	    -12.81798646	      4.40381133	     41.72865421	     90.00000001	      0.00000000	      0.00000000
      0.05000000	     11.43502052	     -3.35258555	      7.21831915	     -2.53924858	      0.86602570	      0.16913366	    -29.45383322	      8.89203687	    -22.60431170	      2.23388342	      5.44874866	      0.03898862	     21.15205899	     37.23237520	     -9.41527564	     17.74868524	     -1.57129019	     -9.72632047	     16.32353050	     -3.83931892	      0.28489935	     15.47765997	     23.40963735	     -9.41527564	    -35.23913716	      6.90666994	      6.61252497	      8.91651959	    -20.74856292	      2.33379824	     49.35565925	     90.00000001	      0.00000000	      0.00000000	      2.03133031	    -12.54840729	      3.97760835	     41.06411311	     90.00000001	      0.00000000	      0.00000000
      0.06000000	     11.07991934	     -3.80642205	      7.15634964	     -2.52760655	      0.86372521	      0.16860185	    -29.55094192	      9.33625815	    -22.57532270	      2.84472363	      5.12539670	      0.04964979	     21.30980954	     37.29568369	     -9.37968068	     18.58901568	     -1.79085025	     -9.30063295	     14.92192805	     -3.40393047	      0.26043678	     15.17723129	     24.12786263	     -9.37968068	    -34.80172529	      7.22018602	      6.82711716	      9.10904435	    -20.81624775	      1.66554492	     49.59490211	     90.00000001	      0.00000000	      0.00000000	      1.47987310	    -12.30077271	      3.51457262	     40.38496246	     90.00000001	      0.00000000	      0.00000000
      0.07000000	     10.76034501	     -4.19370579	      6.99304688	     -2.51574000	      0.86166273	      0.16813952	    -29.61200949	      9.65717890	    -22.40633901	      3.64627721	      4.70195222	      0.06363954	     21.50706192	     37.36392922	     -9.33949309	     19.24489584	     -1.95516553	     -8.86178519	     13.74358386	     -3.08864889	      0.23987079	     14.98209122	     24.88424528	     -9.33949309	    -34.38804988	      7.42898463	      7.10771047	      9.19322552	    -20.81485479	      0.96334356	     49.80138497	     90.00000001	      0.00000000	      0.00000000	      1.01735837	    -12.00293670	      2.96371681	     39.61535557	     90.00000001	      0.00000000	      0.00000000
      0.08000000	     10.54100618	     -4.55002453	      6.75039529	     -2.50371099	      0.85993592	      0.16771610	    -29.65473744	      9.81800850	    -22.44945551	      4.80448667	      4.30986969	      0.08385411	     21.65516809	     37.52281776	     -9.29970627	     19.77946058	     -2.14863807	     -8.68501833	     13.07440460	     -2.91919265	      0.22819141	     14.88107080	     25.51242666	     -9.29970627	    -34.10686804	      7.57774168	      7.42775051	      9.23041726	    -20.80720684	      0.24692685	     50.01792728	     90.00000001	      0.00000000	      0.00000000	      0.60129853	    -11.69720910	      2.33611170	     38.85159095	     90.00000001	      0.00000000	      0.00000000
      0.09000000	     10.29398315	     -4.72672983	      6.43050465	     -2.49118058	      0.85830843	      0.16712578	    -29.69140814	      9.65191963	    -22.61960273	      6.07395940	      4.04057696	      0.10601059	     21.86074914	     37.82234853	     -9.22505891	     20.30713607	     -2.13138286	     -9.00178812	     12.91183999	     -3.04212511	      0.22535412	     14.90252417	     26.36444104	     -9.22505891	    -33.74462662	      7.52862640	      7.61364324	      9.16856698	    -20.68119648	     -0.53691986	     50.24904194	     90.00000001	      0.00000000	      0.00000000	      0.13402451	    -11.32241785	      1.25763088	     38.07809214	     90.00000001	      0.00000000	      0.00000000
      0.10000000	     10.05443687	     -4.97544378	      6.20527433	     -2.47866542	      0.85687311	      0.16662390	    -29.72480207	      9.69363386	    -22.10425333	      7.16602889	      3.61246201	      0.12507080	     21.64187569	     37.71460974	     -9.21069453	     20.76858903	     -2.16168697	     -8.64970164	     13.09459900	     -3.15445496	      0.22854387	     14.87007602	     26.37564632	     -9.21069453	    -33.39551353	      7.56171480	      7.70758509	      9.14319664	    -20.65833445	     -0.63986639	     50.29976510	     90.00000001	      0.00000000	      0.00000000	     -0.41524031	    -11.27673300	      1.18494081	     37.67494470	     90.00000001	      0.00000000	      0.00000000
      0.11000000	      9.91972035	     -5.05997674	      5.81994175	     -2.46556915	      0.85582175	      0.16596592	    -29.74344000	      9.35600203	    -22.34578259	      8.77418634	      3.20521418	      0.15313844	     21.71016272	     38.01363597	     -9.13803980	     20.98021737	     -2.09722281	     -8.91953678	     13.58569030	     -3.43088255	      0.23711503	     15.02128462	     26.98906340	     -9.13803980	    -33.10911444	      7.40124483	      7.95047208	      8.87669377	    -20.57547412	     -1.20111521	     50.41931540	     90.00000001	      0.00000000	      0.00000000	     -0.67835534	    -10.91826795	      0.29457287	     36.64150024	     90.00000001	      0.00000000	      0.00000000
      0.12000000	      9.75541297	     -5.15971029	      5.50063499	     -2.45237748	      0.85491873	      0.16532788	    -29.76393024	      9.10824124	    -22.18059027	     10.16895460	      2.77431456	      0.17748174	     21.28864978	     37.96760760	     -9.11017420	     21.20050081	     -2.01017398	     -8.74447240	     14.44948964	     -3.76144547	      0.25219117	     14.93305700	     26.81044444	     -9.11017420	    -32.79227909	      7.26483805	      8.04212995	      8.69221460	    -20.47775279	     -1.33407005	     50.33419671	     90.00000001	      0.00000000	      0.00000000	     -1.07010334	    -10.81665090	      0.10301738	     35.95596982	     90.00000001	      0.00000000	      0.00000000
      0.13000000	      9.61339217	     -5.06572779	      5.26496739	     -2.43875016	      0.85419493	      0.16441368	    -29.78315240	      8.65285121	    -22.34359312	     11.69267847	      2.35433539	      0.20407574	     20.82843033	     38.15145054	     -9.06856265	     21.35430780	     -1.65490472	     -8.74417542	     15.62568504	     -4.29249838	      0.27271965	     14.82563211	     26.71590885	     -9.06856265	    -32.44989916	      6.97399012	      7.97043166	      8.34276956	    -20.27684112	     -1.59548695	     50.25737228	     90.00000001	      0.00000000	      0.00000000	     -1.40232354	    -10.71381272	     -0.33439138	     35.17263434	     90.00000001	      0.00000000	      0.00000000
      0.14000000	      9.49445725	     -4.90797884	      5.08344696	     -2.42489785	      0.85371914	      0.16334982	    -29.79861557	      8.13919864	    -22.54275279	     13.24922520	      1.94855195	      0.23124260	     20.11484902	     38.20378576	     -9.02377243	     21.45473863	     -1.21762196	     -8.73296834	     17.03910567	     -4.90392734	      0.29738850	     14.66526310	     26.54448704	     -9.02377243	    -32.11485172	      6.64214138	      7.82405384	      7.93906637	    -20.04580517	     -1.82217190	     50.07169540	     90.00000001	      0.00000000	      0.00000000	     -1.69369371	    -10.64708718	     -0.74985967	     34.46843754	     90.00000001	      0.00000000	      0.00000000
